HIERARCHY
ROOT Hips
{
  OFFSET 52.354 54.0659 -4.06192
  CHANNELS 6 Xposition Yposition Zposition Zrotation Xrotation Yrotation
  JOINT spine
  {
    OFFSET 0 7.96568 0.458067
    CHANNELS 3 Zrotation Xrotation Yrotation
    JOINT spine1
    {
      OFFSET 0 10.2431 0
      CHANNELS 3 Zrotation Xrotation Yrotation
      JOINT spine2
      {
        OFFSET 0 9.81475 0
        CHANNELS 3 Zrotation Xrotation Yrotation
        JOINT Neck
        {
          OFFSET 0 25.1986 1.20138
          CHANNELS 3 Zrotation Xrotation Yrotation
          JOINT Head
          {
            OFFSET 0 7.61315 0
            CHANNELS 3 Zrotation Xrotation Yrotation
            End Site
            {
              OFFSET 0 18.4281 -6.07733
            }
          }
        }
        JOINT RightShoulder
        {
          OFFSET -4.1327 10.5992 -0.575451
          CHANNELS 3 Zrotation Xrotation Yrotation
          JOINT RightArm
          {
            OFFSET 0 13.9018 0
            CHANNELS 3 Zrotation Xrotation Yrotation
            JOINT RightArmRoll
            {
              OFFSET 0 7.01789 0
              CHANNELS 3 Zrotation Xrotation Yrotation
              JOINT RightForeArm
              {
                OFFSET 0 20.4406 0
                CHANNELS 3 Zrotation Xrotation Yrotation
                JOINT RightForeArmRoll
                {
                  OFFSET 0 7.87516 0
                  CHANNELS 3 Zrotation Xrotation Yrotation
                  JOINT RightHand
                  {
                    OFFSET 0 15.8037 0
                    CHANNELS 3 Zrotation Xrotation Yrotation
                    End Site
                    {
                      OFFSET 0 0 0
                    }
                  }
                }
              }
            }
          }
        }
        JOINT LeftShoulder
        {
          OFFSET 4.1327 10.5992 -0.575451
          CHANNELS 3 Zrotation Xrotation Yrotation
          JOINT LeftArm
          {
            OFFSET 0 13.9018 0
            CHANNELS 3 Zrotation Xrotation Yrotation
            JOINT LeftArmRoll
            {
              OFFSET 0 7.01788 0
              CHANNELS 3 Zrotation Xrotation Yrotation
              JOINT LeftForeArm
              {
                OFFSET 0 20.4406 0
                CHANNELS 3 Zrotation Xrotation Yrotation
                JOINT LeftForeArmRoll
                {
                  OFFSET 0 7.87515 0
                  CHANNELS 3 Zrotation Xrotation Yrotation
                  JOINT LeftHand
                  {
                    OFFSET 0 15.8037 0
                    CHANNELS 3 Zrotation Xrotation Yrotation
                    End Site
                    {
                      OFFSET 0 0 0
                    }
                  }
                }
              }
            }
          }
        }
      }
    }
  }
  JOINT RightUpLeg
  {
    OFFSET -7.06048 -1.2947 -1.0861
    CHANNELS 3 Zrotation Xrotation Yrotation
    JOINT RightUpLegRoll
    {
      OFFSET 0 18.5308 0
      CHANNELS 3 Zrotation Xrotation Yrotation
      JOINT RightLeg
      {
        OFFSET 0 -22.9476 0
        CHANNELS 3 Zrotation Xrotation Yrotation
        JOINT RightLegRoll
        {
          OFFSET 0 23.0226 0
          CHANNELS 3 Zrotation Xrotation Yrotation
          JOINT RightFoot
          {
            OFFSET 0 19.1625 0
            CHANNELS 3 Zrotation Xrotation Yrotation
            JOINT RightToeBase
            {
              OFFSET 0 16.0188 0
              CHANNELS 3 Zrotation Xrotation Yrotation
              End Site
              {
                OFFSET 0.00678979 7.75782 -0.894206
              }
            }
          }
        }
      }
    }
  }
  JOINT LeftUpLeg
  {
    OFFSET 7.06048 -1.2947 -1.0861
    CHANNELS 3 Zrotation Xrotation Yrotation
    JOINT LeftUpLegRoll
    {
      OFFSET 0 18.5309 0
      CHANNELS 3 Zrotation Xrotation Yrotation
      JOINT LeftLeg
      {
        OFFSET 0 22.9475 0
        CHANNELS 3 Zrotation Xrotation Yrotation
        JOINT LeftLegRoll
        {
          OFFSET 0 23.2355 0
          CHANNELS 3 Zrotation Xrotation Yrotation
          JOINT LeftFoot
          {
            OFFSET 0 18.9496 0
            CHANNELS 3 Zrotation Xrotation Yrotation
            JOINT LeftToeBase
            {
              OFFSET 0 16.0188 0
              CHANNELS 3 Zrotation Xrotation Yrotation
              End Site
              {
                OFFSET -0.0304289 7.75782 -0.894207
              }
            }
          }
        }
      }
    }
  }
}
MOTION
Frames: 11
Frame Time: 0.00208333
52.5867 54.0672 -5.56105 1.18357 -5.12983 1.79112 0.725085 4.48349 -1.02732 1.56676 12.9547 -2.2234 1.60089 14.5989 -2.25727 -17.2627 3.73806 -0.00878584 14.9198 4.24657 -2.34542 51.3727 -4.18095 -2.01143 114.538 25.449 -38.5526 -6.6234e-007 -1.70037e-006 1.64963e-006 26.0559 77.9653 -26.8407 -6.10937e-006 1.43861e-006 -2.99999 8.02917 -4.9514 0.69769 -57.616 -4.99007 3.01366 -91.4187 10.9258 56.3711 -1.29681e-005 1.89851e-006 8.23841e-008 173.799 85.147 -162.1 1.13167e-005 -5.26191e-006 3 -8.02888 -4.95145 -0.697711 120.11 82.1063 61.764 -180 7.01366e-015 178.311 -26.4568 76.6626 29.3954 1.8555e-007 -5.90901e-006 2.61255 -20.6205 69.9787 21.3408 8.17873 26.7734 -1.41286 -119.917 83.1217 -59.4603 4.5067e-006 -1.99009e-005 -1.59616 151.612 -79.2579 148.929 -4.70884e-006 -3.51381e-006 -2.77432 17.9223 65.9712 -17.9526 -8.17727 27.0886 1.07479 
52.5871 54.0602 -5.56228 1.19054 -5.22927 1.80927 0.721563 4.47203 -1.02862 1.55945 12.9319 -2.22547 1.59356 14.5761 -2.2592 -17.2373 3.71668 -0.0112307 14.9107 4.40056 -2.36184 51.4507 -4.17219 -2.01156 114.504 25.528 -38.4903 -6.6234e-007 -1.70037e-006 1.64963e-006 26.0132 77.7906 -26.7174 -6.10937e-006 1.43861e-006 -2.99999 8.02917 -4.9514 0.69769 -57.6515 -4.99271 3.01771 -91.4309 10.9743 56.3058 -1.29681e-005 1.89851e-006 8.23841e-008 174.334 85.2291 -162.719 1.13167e-005 -5.26191e-006 3 -8.02888 -4.95145 -0.697711 120.541 82.0369 61.3297 -180 7.01366e-015 178.31 -26.4377 76.6464 29.3813 1.8555e-007 -5.90901e-006 2.61262 -20.6209 69.9789 21.3417 8.17864 26.7751 -1.41045 -120.607 83.0885 -58.772 4.5067e-006 -1.99009e-005 -1.59863 151.636 -79.2426 148.948 -4.70884e-006 -3.51381e-006 -2.7745 17.9239 65.9729 -17.9545 -8.17728 27.0894 1.0736 
52.5805 54.0725 -5.60154 1.19687 -5.32791 1.82758 0.718958 4.46027 -1.02974 1.55397 12.9084 -2.22723 1.58806 14.5526 -2.26086 -17.223 3.70108 -0.0131012 14.9095 4.5529 -2.38 51.5226 -4.16373 -2.0114 114.474 25.6054 -38.4261 -6.6234e-007 -1.70037e-006 1.64963e-006 25.9679 77.6145 -26.5914 -6.10937e-006 1.43861e-006 -2.99999 8.02917 -4.9514 0.69769 -57.6934 -4.99331 3.02087 -91.4427 11.024 56.2381 -1.29681e-005 1.89851e-006 8.23841e-008 174.906 85.3115 -163.377 1.13167e-005 -5.26191e-006 3 -8.02888 -4.95145 -0.697711 120.96 81.9675 60.9078 -180 7.01365e-015 178.309 -26.4177 76.6301 29.3663 1.8555e-007 -5.90901e-006 2.6127 -20.6217 69.9795 21.3431 8.17856 26.7767 -1.40811 -121.288 83.0557 -58.0918 4.5067e-006 -1.99009e-005 -1.60114 151.662 -79.2254 148.968 -4.70884e-006 -3.51381e-006 -2.77491 17.927 65.9766 -17.9579 -8.17728 27.09 1.07266 
52.5816 54.0642 -5.59482 1.20273 -5.42582 1.84607 0.717108 4.44825 -1.03079 1.55 12.8844 -2.22889 1.58409 14.5286 -2.26244 -17.2196 3.69119 -0.014172 14.9163 4.70402 -2.39955 51.5886 -4.15519 -2.0107 114.449 25.6818 -38.3604 -6.6234e-007 -1.70037e-006 1.64963e-006 25.9205 77.4364 -26.463 -6.10937e-006 1.43861e-006 -2.99999 8.02917 -4.9514 0.69769 -57.7412 -4.99291 3.02377 -91.4541 11.0753 56.1688 -1.29681e-005 1.89851e-006 8.23841e-008 175.52 85.3941 -164.077 1.13167e-005 -5.26191e-006 3 -8.02888 -4.95145 -0.697711 121.368 81.898 60.4965 -180 7.01365e-015 178.308 -26.3966 76.6134 29.3502 1.8555e-007 -5.90901e-006 2.61278 -20.6231 69.9807 21.3452 8.17848 26.7783 -1.40584 -121.961 83.0228 -57.4183 4.5067e-006 -1.99009e-005 -1.60369 151.691 -79.2061 148.99 -4.70884e-006 -3.51381e-006 -2.77558 17.9319 65.9827 -17.9632 -8.17727 27.0905 1.07197 
52.5936 54.0367 -5.56085 1.20815 -5.52312 1.86469 0.715918 4.43602 -1.03177 1.54736 12.8599 -2.23045 1.58144 14.5042 -2.26395 -17.2257 3.68643 -0.0145378 14.9301 4.85403 -2.42035 51.6496 -4.14651 -2.00949 114.429 25.7572 -38.2935 -6.6234e-007 -1.70037e-006 1.64963e-006 25.8719 77.2567 -26.3332 -6.10937e-006 1.43861e-006 -2.99999 8.02917 -4.9514 0.69769 -57.7942 -4.99155 3.0264 -91.4655 11.1278 56.0977 -1.29681e-005 1.89851e-006 8.23841e-008 176.175 85.4767 -164.821 1.13167e-005 -5.26191e-006 3 -8.02888 -4.95145 -0.697711 121.767 81.8285 60.0946 -180 7.01365e-015 178.307 -26.3746 76.5964 29.3331 1.8555e-007 -5.90901e-006 2.61286 -20.6252 69.9825 21.3478 8.1784 26.7798 -1.40363 -122.628 82.9899 -56.7506 4.5067e-006 -1.99009e-005 -1.60627 151.723 -79.1851 149.013 -4.70884e-006 -3.51381e-006 -2.77647 17.9383 65.9909 -17.9703 -8.17725 27.0909 1.07149 
52.5927 54.0375 -5.57522 1.21319 -5.61996 1.8834 0.715293 4.42363 -1.03267 1.54586 12.8352 -2.23191 1.57993 14.4794 -2.26537 -17.2402 3.68628 -0.014293 14.9505 5.00303 -2.44226 51.7065 -4.13763 -2.00779 114.412 25.8318 -38.2253 -6.6234e-007 -1.70037e-006 1.64963e-006 25.8226 77.0758 -26.2025 -6.10937e-006 1.43861e-006 -2.99999 8.02917 -4.9514 0.69769 -57.8514 -4.98931 3.02873 -91.4771 11.1813 56.0248 -1.29681e-005 1.89851e-006 8.23841e-008 176.872 85.5593 -165.608 1.13167e-005 -5.26191e-006 3 -8.02888 -4.95145 -0.697711 122.157 81.7588 59.701 -180 7.01364e-015 178.306 -26.3521 76.5792 29.3155 1.8555e-007 -5.90901e-006 2.61295 -20.6276 69.9847 21.351 8.17831 26.7813 -1.40147 -123.288 82.9567 -56.0886 4.5067e-006 -1.99009e-005 -1.60888 151.756 -79.1627 149.038 -4.70884e-006 -3.51381e-006 -2.77755 17.9459 66.0008 -17.9788 -8.17721 27.0911 1.0712 
52.599 54.03 -5.56226 1.21788 -5.71649 1.90214 0.715138 4.41115 -1.03351 1.5453 12.8102 -2.23326 1.57937 14.4544 -2.2667 -17.2618 3.69016 -0.0135324 14.9766 5.15112 -2.46514 51.7601 -4.12851 -2.00565 114.397 25.9059 -38.1559 -6.6234e-007 -1.70037e-006 1.64963e-006 25.7733 76.8939 -26.0718 -6.10937e-006 1.43861e-006 -2.99999 8.02917 -4.9514 0.69769 -57.9122 -4.98622 3.03077 -91.4893 11.2356 55.9502 -1.29681e-005 1.89851e-006 8.23841e-008 177.611 85.6416 -166.438 1.13167e-005 -5.26191e-006 3 -8.02888 -4.95145 -0.697711 122.541 81.6891 59.3143 -180 7.01364e-015 178.306 -26.3292 76.5619 29.2975 1.8555e-007 -5.90901e-006 2.61303 -20.6304 69.9872 21.3544 8.17823 26.7827 -1.39935 -123.942 82.9231 -55.4318 4.5067e-006 -1.99009e-005 -1.61152 151.79 -79.1392 149.064 -4.70884e-006 -3.51381e-006 -2.77877 17.9544 66.012 -17.9883 -8.17717 27.0913 1.07107 
52.599 54.0237 -5.5639 1.22227 -5.81285 1.92087 0.715358 4.39862 -1.03428 1.54549 12.7851 -2.23452 1.57957 14.4293 -2.26795 -17.2894 3.69754 -0.0123503 15.0078 5.29842 -2.48886 51.8111 -4.11907 -2.00308 114.385 25.9794 -38.0854 -6.6234e-007 -1.70037e-006 1.64963e-006 25.7244 76.7114 -25.9416 -6.10937e-006 1.43861e-006 -2.99999 8.02917 -4.9514 0.69769 -57.9756 -4.98236 3.03248 -91.5022 11.2902 55.8738 -1.29681e-005 1.89851e-006 8.23841e-008 178.391 85.7235 -167.309 1.13167e-005 -5.26191e-006 3 -8.02888 -4.95145 -0.697711 122.919 81.6192 58.9335 -180 7.01364e-015 178.305 -26.3063 76.5446 29.2794 1.8555e-007 -5.90901e-006 2.61313 -20.6333 69.9899 21.3581 8.17815 26.7842 -1.39726 -124.591 82.8889 -54.7798 4.5067e-006 -1.99009e-005 -1.61418 151.825 -79.115 149.089 -4.70884e-006 -3.51381e-006 -2.7801 17.9637 66.0241 -17.9985 -8.17713 27.0913 1.07108 
52.6025 54.018 -5.55652 1.22641 -5.90917 1.93953 0.715857 4.3861 -1.03498 1.54625 12.7601 -2.23567 1.58032 14.4043 -2.2691 -17.3218 3.70785 -0.0108414 15.0435 5.44502 -2.51327 51.8605 -4.10926 -2.00014 114.373 26.0525 -38.0138 -6.6234e-007 -1.70037e-006 1.64963e-006 25.6765 76.5287 -25.8125 -6.10937e-006 1.43861e-006 -2.99999 8.02917 -4.9514 0.69769 -58.0409 -4.97776 3.03385 -91.5163 11.3451 55.7956 -1.29681e-005 1.89851e-006 8.23841e-008 179.212 85.8049 -168.223 1.13167e-005 -5.26191e-006 3 -8.02888 -4.95145 -0.697711 123.291 81.5491 58.5576 -180 7.01364e-015 178.304 -26.2836 76.5274 29.2614 1.8555e-007 -5.90901e-006 2.61323 -20.6363 69.9926 21.3618 8.17807 26.7856 -1.39518 -125.234 82.854 -54.1325 4.5067e-006 -1.99009e-005 -1.61684 151.859 -79.0904 149.114 -4.70884e-006 -3.51381e-006 -2.78148 17.9733 66.0366 -18.0092 -8.17708 27.0912 1.07119 
52.6079 54.0173 -5.5619 1.23033 -6.00561 1.95808 0.716542 4.37365 -1.03563 1.54737 12.7351 -2.23671 1.58145 14.3794 -2.27015 -17.3578 3.72055 -0.0091001 15.0829 5.59102 -2.53825 51.9091 -4.09902 -1.99684 114.361 26.1255 -37.9414 -6.6234e-007 -1.70037e-006 1.64963e-006 25.6299 76.3461 -25.685 -6.10937e-006 1.43861e-006 -2.99999 8.02917 -4.9514 0.69769 -58.1073 -4.9725 3.03487 -91.5318 11.3998 55.7156 -1.29681e-005 1.89851e-006 8.23841e-008 -179.926 85.8855 -169.178 1.13167e-005 -5.26191e-006 3 -8.02888 -4.95145 -0.697711 123.661 81.4787 58.1854 -180 7.01363e-015 178.303 -26.2613 76.5103 29.2439 1.8555e-007 -5.90901e-006 2.61334 -20.6392 69.9952 21.3654 8.178 26.787 -1.39311 -125.873 82.8181 -53.4895 4.5067e-006 -1.99009e-005 -1.61952 151.893 -79.0659 149.138 -4.70884e-006 -3.51381e-006 -2.78288 17.983 66.0494 -18.0199 -8.17702 27.0911 1.07139 
52.6063 54.0133 -5.56635 1.23408 -6.1023 1.97647 0.717315 4.36132 -1.03621 1.54868 12.7104 -2.23766 1.58276 14.3547 -2.27111 -17.3962 3.73508 -0.00722105 15.1254 5.73654 -2.56366 51.9577 -4.0883 -1.99322 114.349 26.1983 -37.8681 -6.6234e-007 -1.70037e-006 1.64963e-006 25.5851 76.1638 -25.5597 -6.10937e-006 1.43861e-006 -2.99999 8.02917 -4.9514 0.69769 -58.1739 -4.96661 3.03552 -91.5489 11.454 55.6338 -1.29681e-005 1.89851e-006 8.23841e-008 -179.024 85.9654 -170.174 1.13167e-005 -5.26191e-006 3 -8.02888 -4.95145 -0.697711 124.027 81.4081 57.816 -180 7.01363e-015 178.303 -26.2397 76.4935 29.227 1.8555e-007 -5.90901e-006 2.61346 -20.6419 69.9977 21.3688 8.17794 26.7884 -1.39104 -126.508 82.7813 -52.8507 4.5067e-006 -1.99009e-005 -1.6222 151.925 -79.0418 149.161 -4.70884e-006 -3.51381e-006 -2.78425 17.9925 66.0618 -18.0305 -8.17697 27.091 1.07163 
